<svg viewBox="0 0 348 64" xmlns="http://www.w3.org/2000/svg" xmlns:xlink="http://www.w3.org/1999/xlink">
    <title>laravel reverb logo</title>
    <style>
        circle { fill: none; stroke: #f25700; stroke-width:3 }
        path{ fill: black }
        @media (prefers-color-scheme:dark) { path { fill:white } }
    </style>
    <path d="M247.8,35.1c-0.6-0.5-1.2-0.9-2-1c1.7-0.5,3-1.3,3.9-2.5c0.9-1.2,1.4-2.6,1.4-4.4c0-2.4-0.8-4.2-2.3-5.4 c-1.5-1.3-3.7-1.9-6.5-1.9H232v26.8h2.3v-12h7.5c1.4,0,2.5,0.2,3.3,0.6c0.8,0.4,1.3,1.2,1.8,2.4l3.3,8.9h2.4l-3.4-9.3 C248.8,36.4,248.3,35.6,247.8,35.1z M242.2,32.7h-7.9V21.9h7.9c4.4,0,6.6,1.8,6.6,5.3C248.8,30.9,246.6,32.7,242.2,32.7z M265.1,27.4c-1.7,0-3.3,0.4-4.6,1.2c-1.3,0.8-2.4,2-3.1,3.5c-0.7,1.5-1.1,3.2-1.1,5.1c0,3,0.8,5.4,2.5,7.2c1.7,1.7,3.9,2.6,6.8,2.6 c1.4,0,2.7-0.2,3.9-0.7c1.3-0.5,2.3-1.1,3.2-1.9l-0.9-1.8c-1.9,1.6-3.9,2.3-6.2,2.3c-2.2,0-3.9-0.7-5.1-2c-1.2-1.3-1.7-3.3-1.7-5.8 V37H273v-0.5c0-2.9-0.7-5.1-2.1-6.7C269.5,28.2,267.6,27.4,265.1,27.4z M258.9,35.2c0.3-1.9,1-3.3,2-4.4c1.1-1,2.5-1.6,4.2-1.6 c1.7,0,3,0.5,4,1.5c1,1,1.5,2.5,1.7,4.4H258.9z M291.4,27.9h2.3l-8.1,18.9h-2.4l-8-18.9h2.4l6.8,16.6L291.4,27.9z M304.9,27.4 c-1.7,0-3.3,0.4-4.6,1.2s-2.4,2-3.1,3.5c-0.7,1.5-1.1,3.2-1.1,5.1c0,3,0.8,5.4,2.5,7.2c1.7,1.7,3.9,2.6,6.8,2.6 c1.4,0,2.7-0.2,3.9-0.7c1.3-0.5,2.3-1.1,3.2-1.9l-0.9-1.8c-1.9,1.6-3.9,2.3-6.2,2.3c-2.2,0-3.9-0.7-5.1-2c-1.2-1.3-1.7-3.3-1.7-5.8 V37h14.3v-0.5c0-2.9-0.7-5.1-2.1-6.7C309.3,28.2,307.4,27.4,304.9,27.4z M298.6,35.2c0.3-1.9,1-3.3,2-4.4c1.1-1,2.5-1.6,4.2-1.6 c1.7,0,3,0.5,4,1.5c1,1,1.5,2.5,1.7,4.4H298.6z M325.8,27.4c0.6,0,1.2,0.1,1.7,0.2l-0.1,2.1c-0.5-0.1-1.1-0.2-1.7-0.2 c-1.9,0-3.3,0.6-4.3,1.8c-0.9,1.2-1.4,2.7-1.4,4.4v11.1h-2.3V33.1c0-2-0.1-3.7-0.3-5.2h2.2l0.3,3.5c0.5-1.3,1.2-2.3,2.3-2.9 C323.3,27.7,324.5,27.4,325.8,27.4z M347,32c-0.7-1.5-1.7-2.6-3-3.4c-1.3-0.8-2.7-1.2-4.4-1.2c-1.6,0-2.9,0.3-4,1 c-1.1,0.7-2,1.7-2.5,3V19h-2.3v27.7h2.3V43c0.6,1.3,1.4,2.3,2.5,2.9c1.1,0.7,2.4,1,4,1c1.7,0,3.1-0.4,4.4-1.2c1.3-0.8,2.2-2,3-3.5 c0.7-1.5,1.1-3.2,1.1-5.2C348,35.2,347.7,33.5,347,32z M343.9,42.9c-1.1,1.4-2.6,2.1-4.6,2.1c-2,0-3.5-0.7-4.6-2 c-1.1-1.3-1.6-3.3-1.6-5.7c0-2.5,0.5-4.4,1.6-5.8c1.1-1.4,2.6-2,4.6-2c2,0,3.5,0.7,4.6,2c1.1,1.4,1.7,3.3,1.7,5.7 C345.6,39.6,345,41.5,343.9,42.9z M96.9,42.2h9.1v4.3H92V17h4.9V42.2z M123.2,29.5c-0.6-1-1.5-1.8-2.6-2.3c-1.1-0.6-2.3-0.8-3.5-0.8 c-1.5,0-2.9,0.3-4.1,0.8c-1.2,0.5-2.3,1.3-3.2,2.3c-0.9,1-1.6,2.1-2.1,3.3c-0.5,1.3-0.7,2.6-0.7,3.9c0,1.4,0.2,2.7,0.7,4 c0.5,1.2,1.2,2.3,2.1,3.3c0.9,1,2,1.7,3.2,2.3c1.2,0.5,2.6,0.8,4.1,0.8c1.2,0,2.3-0.3,3.5-0.8c1.1-0.6,2-1.3,2.6-2.3v2.7h4.6V26.9 h-4.6V29.5z M122.8,39.1c-0.3,0.8-0.7,1.4-1.2,2c-0.5,0.6-1.1,1-1.8,1.3c-0.7,0.3-1.5,0.5-2.4,0.5c-0.9,0-1.7-0.2-2.4-0.5 c-0.7-0.3-1.3-0.8-1.8-1.3c-0.5-0.6-0.9-1.2-1.2-2c-0.3-0.8-0.4-1.6-0.4-2.4c0-0.8,0.1-1.6,0.4-2.4c0.3-0.8,0.7-1.4,1.2-2 c0.5-0.6,1.1-1,1.8-1.3c0.7-0.3,1.5-0.5,2.4-0.5c0.9,0,1.7,0.2,2.4,0.5c0.7,0.3,1.3,0.8,1.8,1.3c0.5,0.6,0.9,1.2,1.2,2 c0.3,0.8,0.4,1.6,0.4,2.4C123.2,37.5,123.1,38.3,122.8,39.1z M160.7,29.5c-0.6-1-1.5-1.8-2.6-2.3c-1.1-0.6-2.3-0.8-3.5-0.8 c-1.5,0-2.9,0.3-4.1,0.8c-1.2,0.5-2.3,1.3-3.2,2.3c-0.9,1-1.6,2.1-2.1,3.3c-0.5,1.3-0.7,2.6-0.7,3.9c0,1.4,0.2,2.7,0.7,4 c0.5,1.2,1.2,2.3,2.1,3.3c0.9,1,2,1.7,3.2,2.3c1.2,0.5,2.6,0.8,4.1,0.8c1.2,0,2.3-0.3,3.5-0.8c1.1-0.6,2-1.3,2.6-2.3v2.7h4.6V26.9 h-4.6V29.5z M160.3,39.1c-0.3,0.8-0.7,1.4-1.2,2c-0.5,0.6-1.1,1-1.8,1.3c-0.7,0.3-1.5,0.5-2.4,0.5c-0.9,0-1.7-0.2-2.4-0.5 c-0.7-0.3-1.3-0.8-1.8-1.3c-0.5-0.6-0.9-1.2-1.2-2c-0.3-0.8-0.4-1.6-0.4-2.4c0-0.8,0.1-1.6,0.4-2.4c0.3-0.8,0.7-1.4,1.2-2 c0.5-0.6,1.1-1,1.8-1.3c0.7-0.3,1.5-0.5,2.4-0.5c0.9,0,1.7,0.2,2.4,0.5c0.7,0.3,1.3,0.8,1.8,1.3c0.5,0.6,0.9,1.2,1.2,2 c0.3,0.8,0.4,1.6,0.4,2.4C160.7,37.5,160.6,38.3,160.3,39.1z M211.4,17h4.6v29.5h-4.6V17z M131.5,26.9H144v4.5h-7.9v15.1h-4.6V26.9z M188.5,26.9L181,46.5h-5.8l-7.6-19.6h4.7l5.8,15l5.8-15H188.5z M198.6,26.4c-5.7,0-10.1,4.6-10.1,10.3c0,6.3,4.3,10.3,10.7,10.3 c3.6,0,5.9-1.4,8.6-4.3l-3.1-2.4c0,0-2.4,3.1-5.9,3.1c-4.1,0-5.8-3.3-5.8-5h15.3C209.2,31.9,204.9,26.4,198.6,26.4z M193.1,35 c0-0.4,0.6-5,5.5-5s5.5,4.6,5.6,5H193.1z" />
    <defs><circle id="a" cx="32" cy="32" r="32" /></defs>
    <clipPath id="b"><use xlink:href="#a" style="overflow:visible" /></clipPath>
    <g style="clip-path:url(#b)">
        <circle opacity=".9" cx="43.5" cy="11.4" r="4.8" />
        <circle opacity=".6" cx="43.5" cy="11.4" r="10.6" />
        <circle opacity=".4" cx="43.5" cy="11.4" r="16.4" />
        <circle opacity=".2" cx="43.5" cy="11.4" r="22.2" />
        <circle opacity=".9" cx="45.4" cy="53.8" r="4.8" />
        <circle opacity=".6" cx="45.4" cy="53.8" r="10.6" />
        <circle opacity=".4" cx="45.4" cy="53.8" r="16.4" />
        <circle opacity=".2" cx="45.4" cy="53.8" r="22.2" />
        <circle opacity=".8" cx="8.7" cy="27.8" r="4.8" />
        <circle opacity=".5" cx="8.7" cy="27.8" r="10.6" />
        <circle opacity=".3" cx="8.7" cy="27.8" r="16.4" />
        <circle opacity=".2" cx="8.7" cy="27.8" r="22.2" />
    </g>
</svg>

