<svg width="372" height="64" viewBox="0 0 372 64" fill="none" xmlns="http://www.w3.org/2000/svg">
<path d="M67 20.9901H5C2.23858 20.9901 0 23.2276 0 25.9877V57.9726C0 60.7327 2.23858 62.9702 5 62.9702H67C69.7614 62.9702 72 60.7327 72 57.9726V25.9877C72 23.2276 69.7614 20.9901 67 20.9901Z" fill="url(#paint0_linear)"/>
<path d="M36 53.9745C42.6274 53.9745 48 48.6044 48 41.9802C48 35.3559 42.6274 29.9858 36 29.9858C29.3726 29.9858 24 35.3559 24 41.9802C24 48.6044 29.3726 53.9745 36 53.9745Z" fill="white"/>
<path d="M85 0.999527H23C20.2386 0.999527 18 3.23705 18 5.99716V37.982C18 40.7422 20.2386 42.9797 23 42.9797H85C87.7614 42.9797 90 40.7422 90 37.982V5.99716C90 3.23705 87.7614 0.999527 85 0.999527Z" fill="url(#paint1_linear)"/>
<path d="M54 33.9839C60.6274 33.9839 66 28.6139 66 21.9896C66 15.3653 60.6274 9.99527 54 9.99527C47.3726 9.99527 42 15.3653 42 21.9896C42 28.6139 47.3726 33.9839 54 33.9839Z" fill="white"/>
<path d="M117.559 43.7637H128.756V48H112.285V22.4062H117.559V43.7637ZM142.484 48C142.25 47.543 142.08 46.9746 141.975 46.2949C140.744 47.666 139.145 48.3516 137.176 48.3516C135.312 48.3516 133.766 47.8125 132.535 46.7344C131.316 45.6562 130.707 44.2969 130.707 42.6562C130.707 40.6406 131.451 39.0938 132.939 38.0156C134.439 36.9375 136.602 36.3926 139.426 36.3809H141.764V35.291C141.764 34.4121 141.535 33.709 141.078 33.1816C140.633 32.6543 139.924 32.3906 138.951 32.3906C138.096 32.3906 137.422 32.5957 136.93 33.0059C136.449 33.416 136.209 33.9785 136.209 34.6934H131.129C131.129 33.5918 131.469 32.5723 132.148 31.6348C132.828 30.6973 133.789 29.9648 135.031 29.4375C136.273 28.8984 137.668 28.6289 139.215 28.6289C141.559 28.6289 143.416 29.2207 144.787 30.4043C146.17 31.5762 146.861 33.2285 146.861 35.3613V43.6055C146.873 45.4102 147.125 46.7754 147.617 47.7012V48H142.484ZM138.283 44.4668C139.033 44.4668 139.725 44.3027 140.357 43.9746C140.99 43.6348 141.459 43.1836 141.764 42.6211V39.3516H139.865C137.322 39.3516 135.969 40.2305 135.805 41.9883L135.787 42.2871C135.787 42.9199 136.01 43.4414 136.455 43.8516C136.9 44.2617 137.51 44.4668 138.283 44.4668ZM161.451 33.7441C160.76 33.6504 160.15 33.6035 159.623 33.6035C157.701 33.6035 156.441 34.2539 155.844 35.5547V48H150.764V28.9805H155.562L155.703 31.248C156.723 29.502 158.135 28.6289 159.939 28.6289C160.502 28.6289 161.029 28.7051 161.521 28.8574L161.451 33.7441ZM174.406 48C174.172 47.543 174.002 46.9746 173.896 46.2949C172.666 47.666 171.066 48.3516 169.098 48.3516C167.234 48.3516 165.688 47.8125 164.457 46.7344C163.238 45.6562 162.629 44.2969 162.629 42.6562C162.629 40.6406 163.373 39.0938 164.861 38.0156C166.361 36.9375 168.523 36.3926 171.348 36.3809H173.686V35.291C173.686 34.4121 173.457 33.709 173 33.1816C172.555 32.6543 171.846 32.3906 170.873 32.3906C170.018 32.3906 169.344 32.5957 168.852 33.0059C168.371 33.416 168.131 33.9785 168.131 34.6934H163.051C163.051 33.5918 163.391 32.5723 164.07 31.6348C164.75 30.6973 165.711 29.9648 166.953 29.4375C168.195 28.8984 169.59 28.6289 171.137 28.6289C173.48 28.6289 175.338 29.2207 176.709 30.4043C178.092 31.5762 178.783 33.2285 178.783 35.3613V43.6055C178.795 45.4102 179.047 46.7754 179.539 47.7012V48H174.406ZM170.205 44.4668C170.955 44.4668 171.646 44.3027 172.279 43.9746C172.912 43.6348 173.381 43.1836 173.686 42.6211V39.3516H171.787C169.244 39.3516 167.891 40.2305 167.727 41.9883L167.709 42.2871C167.709 42.9199 167.932 43.4414 168.377 43.8516C168.822 44.2617 169.432 44.4668 170.205 44.4668ZM189.523 41.7949L193.057 28.9805H198.365L191.949 48H187.098L180.682 28.9805H185.99L189.523 41.7949ZM209.123 48.3516C206.334 48.3516 204.061 47.4961 202.303 45.7852C200.557 44.0742 199.684 41.7949 199.684 38.9473V38.4551C199.684 36.5449 200.053 34.8398 200.791 33.3398C201.529 31.8281 202.572 30.668 203.92 29.8594C205.279 29.0391 206.826 28.6289 208.561 28.6289C211.162 28.6289 213.207 29.4492 214.695 31.0898C216.195 32.7305 216.945 35.0566 216.945 38.0684V40.1426H204.834C204.998 41.3848 205.49 42.3809 206.311 43.1309C207.143 43.8809 208.191 44.2559 209.457 44.2559C211.414 44.2559 212.943 43.5469 214.045 42.1289L216.541 44.9238C215.779 46.002 214.748 46.8457 213.447 47.4551C212.146 48.0527 210.705 48.3516 209.123 48.3516ZM208.543 32.7422C207.535 32.7422 206.715 33.082 206.082 33.7617C205.461 34.4414 205.062 35.4141 204.887 36.6797H211.953V36.2754C211.93 35.1504 211.625 34.2832 211.039 33.6738C210.453 33.0527 209.621 32.7422 208.543 32.7422ZM225.207 48H220.109V21H225.207V48ZM241.783 37.5762V48H239.621V22.4062H248.34C251 22.4062 253.098 23.0859 254.633 24.4453C256.18 25.8047 256.953 27.6738 256.953 30.0527C256.953 32.4551 256.209 34.3125 254.721 35.625C253.244 36.9258 251.1 37.5762 248.287 37.5762H241.783ZM241.783 35.748H248.34C250.438 35.748 252.037 35.25 253.139 34.2539C254.24 33.2578 254.791 31.8691 254.791 30.0879C254.791 28.3184 254.24 26.9121 253.139 25.8691C252.049 24.8145 250.496 24.2754 248.48 24.252H241.783V35.748ZM273.107 48C272.896 47.4023 272.762 46.5176 272.703 45.3457C271.965 46.3066 271.021 47.0508 269.873 47.5781C268.736 48.0938 267.529 48.3516 266.252 48.3516C264.424 48.3516 262.941 47.8418 261.805 46.8223C260.68 45.8027 260.117 44.5137 260.117 42.9551C260.117 41.1035 260.885 39.6387 262.42 38.5605C263.967 37.4824 266.117 36.9434 268.871 36.9434H272.686V34.7812C272.686 33.4219 272.264 32.3555 271.42 31.582C270.588 30.7969 269.369 30.4043 267.764 30.4043C266.299 30.4043 265.086 30.7793 264.125 31.5293C263.164 32.2793 262.684 33.1816 262.684 34.2363L260.574 34.2188C260.574 32.707 261.277 31.4004 262.684 30.2988C264.09 29.1855 265.818 28.6289 267.869 28.6289C269.99 28.6289 271.66 29.1621 272.879 30.2285C274.109 31.2832 274.742 32.7598 274.777 34.6582V43.6582C274.777 45.498 274.971 46.875 275.357 47.7891V48H273.107ZM266.498 46.4883C267.904 46.4883 269.158 46.1484 270.26 45.4688C271.373 44.7891 272.182 43.8809 272.686 42.7441V38.5605H268.924C266.826 38.584 265.186 38.9707 264.002 39.7207C262.818 40.459 262.227 41.4785 262.227 42.7793C262.227 43.8457 262.619 44.7305 263.404 45.4336C264.201 46.1367 265.232 46.4883 266.498 46.4883ZM287.434 46.5762C288.898 46.5762 290.123 46.166 291.107 45.3457C292.104 44.5137 292.643 43.4414 292.725 42.1289H294.746C294.688 43.2891 294.324 44.3496 293.656 45.3105C292.988 46.2598 292.098 47.0039 290.984 47.543C289.883 48.082 288.699 48.3516 287.434 48.3516C284.938 48.3516 282.957 47.4844 281.492 45.75C280.039 44.0156 279.312 41.6836 279.312 38.7539V38.1211C279.312 36.2461 279.641 34.5879 280.297 33.1465C280.953 31.7051 281.891 30.5918 283.109 29.8066C284.34 29.0215 285.775 28.6289 287.416 28.6289C289.502 28.6289 291.219 29.25 292.566 30.4922C293.926 31.7344 294.652 33.3691 294.746 35.3965H292.725C292.631 33.9082 292.092 32.707 291.107 31.793C290.135 30.8789 288.904 30.4219 287.416 30.4219C285.518 30.4219 284.041 31.1074 282.986 32.4785C281.943 33.8496 281.422 35.7715 281.422 38.2441V38.8594C281.422 41.2852 281.943 43.1777 282.986 44.5371C284.041 45.8965 285.523 46.5762 287.434 46.5762ZM303.482 38.4199L301.074 40.7402V48H298.965V21H301.074V38.2793L303.061 36.1348L310.338 28.9805H312.992L304.924 36.9961L313.695 48H311.182L303.482 38.4199ZM328.619 48C328.408 47.4023 328.273 46.5176 328.215 45.3457C327.477 46.3066 326.533 47.0508 325.385 47.5781C324.248 48.0938 323.041 48.3516 321.764 48.3516C319.936 48.3516 318.453 47.8418 317.316 46.8223C316.191 45.8027 315.629 44.5137 315.629 42.9551C315.629 41.1035 316.396 39.6387 317.932 38.5605C319.479 37.4824 321.629 36.9434 324.383 36.9434H328.197V34.7812C328.197 33.4219 327.775 32.3555 326.932 31.582C326.1 30.7969 324.881 30.4043 323.275 30.4043C321.811 30.4043 320.598 30.7793 319.637 31.5293C318.676 32.2793 318.195 33.1816 318.195 34.2363L316.086 34.2188C316.086 32.707 316.789 31.4004 318.195 30.2988C319.602 29.1855 321.33 28.6289 323.381 28.6289C325.502 28.6289 327.172 29.1621 328.391 30.2285C329.621 31.2832 330.254 32.7598 330.289 34.6582V43.6582C330.289 45.498 330.482 46.875 330.869 47.7891V48H328.619ZM322.01 46.4883C323.416 46.4883 324.67 46.1484 325.771 45.4688C326.885 44.7891 327.693 43.8809 328.197 42.7441V38.5605H324.436C322.338 38.584 320.697 38.9707 319.514 39.7207C318.33 40.459 317.738 41.4785 317.738 42.7793C317.738 43.8457 318.131 44.7305 318.916 45.4336C319.713 46.1367 320.744 46.4883 322.01 46.4883ZM335.07 38.3145C335.07 35.3379 335.727 32.9824 337.039 31.248C338.363 29.502 340.156 28.6289 342.418 28.6289C345.008 28.6289 346.977 29.6602 348.324 31.7227L348.43 28.9805H350.398V47.6133C350.398 50.0625 349.713 52.002 348.342 53.4316C346.971 54.8613 345.113 55.5762 342.77 55.5762C341.445 55.5762 340.18 55.2773 338.973 54.6797C337.777 54.0938 336.834 53.3086 336.143 52.3242L337.32 51.0586C338.809 52.8867 340.578 53.8008 342.629 53.8008C344.387 53.8008 345.758 53.2793 346.742 52.2363C347.727 51.2051 348.236 49.7695 348.271 47.9297V45.5391C346.924 47.4141 344.961 48.3516 342.383 48.3516C340.18 48.3516 338.41 47.4727 337.074 45.7148C335.738 43.957 335.07 41.584 335.07 38.5957V38.3145ZM337.197 38.6836C337.197 41.1094 337.684 43.0254 338.656 44.4316C339.629 45.8262 341 46.5234 342.77 46.5234C345.359 46.5234 347.193 45.3633 348.271 43.043V34.2012C347.779 32.9824 347.07 32.0566 346.145 31.4238C345.219 30.7793 344.105 30.457 342.805 30.457C341.035 30.457 339.658 31.1543 338.674 32.5488C337.689 33.9316 337.197 35.9766 337.197 38.6836ZM363.248 48.3516C361.631 48.3516 360.166 47.9531 358.854 47.1562C357.553 46.3594 356.539 45.252 355.812 43.834C355.086 42.4043 354.723 40.8047 354.723 39.0352V38.2793C354.723 36.4512 355.074 34.8047 355.777 33.3398C356.492 31.875 357.482 30.7266 358.748 29.8945C360.014 29.0508 361.385 28.6289 362.861 28.6289C365.17 28.6289 366.998 29.4199 368.346 31.002C369.705 32.5723 370.385 34.7227 370.385 37.4531V38.6309H356.814V39.0352C356.814 41.1914 357.43 42.9902 358.66 44.4316C359.902 45.8613 361.461 46.5762 363.336 46.5762C364.461 46.5762 365.451 46.3711 366.307 45.9609C367.174 45.5508 367.959 44.8945 368.662 43.9922L369.98 44.9941C368.434 47.2324 366.189 48.3516 363.248 48.3516ZM362.861 30.4219C361.279 30.4219 359.943 31.002 358.854 32.1621C357.775 33.3223 357.119 34.8809 356.885 36.8379H368.293V36.6094C368.234 34.7812 367.713 33.293 366.729 32.1445C365.744 30.9961 364.455 30.4219 362.861 30.4219Z" fill="black"/>
<defs>
<linearGradient id="paint0_linear" x1="36" y1="20.9901" x2="36" y2="62.9702" gradientUnits="userSpaceOnUse">
<stop stop-color="#A7DA3E"/>
<stop offset="1" stop-color="#7ED321"/>
</linearGradient>
<linearGradient id="paint1_linear" x1="54" y1="0.999527" x2="54" y2="42.9797" gradientUnits="userSpaceOnUse">
<stop stop-color="#699B0A"/>
<stop offset="1" stop-color="#417505"/>
</linearGradient>
</defs>
</svg>
