<svg width="491" height="64" viewBox="0 0 491 64" fill="none" xmlns="http://www.w3.org/2000/svg">
    <style>
        .laravel { fill: #1B1B18 } @media (prefers-color-scheme:dark) { .laravel { fill: #fff } }
        .reverb { fill: #868682 } @media (prefers-color-scheme:dark) { .reverb { fill: #A1A09A } }
    </style>
<rect width="64" height="64" fill="#FF95A8"/>
<g clip-path="url(#clip0_259_510224)">
<path d="M32.0012 37.2673C29.0705 37.2673 26.7734 34.8911 26.7734 32.0396C26.7734 29.1881 29.1497 26.8119 32.0012 26.8119C34.9319 26.8119 37.2289 29.1881 37.2289 32.0396C37.2289 34.8911 34.9319 37.2673 32.0012 37.2673Z" fill="#FDFDFC"/>
<path d="M32.001 42.1772C26.3773 42.1772 21.7832 37.5831 21.7832 32.0386C21.7832 26.494 26.3773 21.9 32.001 21.9C37.6248 21.9 42.2188 26.494 42.2188 32.0386C42.2188 37.5831 37.6248 42.1772 32.001 42.1772ZM32.001 24.1178C27.6446 24.1178 24.0802 27.6821 24.0802 31.9594C24.0802 36.2366 27.6446 39.801 32.001 39.801C36.3575 39.801 39.9218 36.2366 39.9218 31.9594C39.9218 27.6821 36.3575 24.1178 32.001 24.1178Z" fill="#FDFDFC"/>
<path d="M31.9998 47.0891C23.683 47.0891 16.8711 40.3565 16.8711 32.0396C16.8711 23.7228 23.683 16.9901 31.9998 16.9901C40.3166 16.9901 47.1285 23.7228 47.1285 32.0396C47.1285 40.3565 40.3166 47.0891 31.9998 47.0891ZM31.9998 19.2079C24.9503 19.2079 19.1681 24.9109 19.1681 31.9604C19.1681 39.0099 24.9503 44.7129 31.9998 44.7129C39.0493 44.7129 44.8315 39.0099 44.8315 31.9604C44.8315 24.9109 39.0493 19.2079 31.9998 19.2079Z" fill="#FDFDFC"/>
<path d="M32.0005 52C20.9114 52 11.9609 43.0495 11.9609 32.0396C11.9609 21.0297 20.9906 12 32.0005 12C43.0897 12 52.0402 20.9505 52.0402 31.9604C52.0402 42.9703 43.0897 52 32.0005 52ZM32.0005 14.297C22.258 14.297 14.258 22.2178 14.258 31.9604C14.258 41.703 22.1788 49.6238 32.0005 49.6238C41.8223 49.703 49.7431 41.7822 49.7431 31.9604C49.7431 22.1386 41.8223 14.297 32.0005 14.297Z" fill="#FDFDFC"/>
</g>
<path class="laravel" d="M103.659 7.625H96V55.5535H118.046V48.5012H103.659V7.625Z"/>
<path class="laravel" d="M145.087 27.9603C144.109 26.3627 142.722 25.1079 140.924 24.1946C139.126 23.2817 137.316 22.8251 135.496 22.8251C133.141 22.8251 130.988 23.2703 129.035 24.1602C127.08 25.0501 125.404 26.2723 124.006 27.8235C122.607 29.3757 121.519 31.1675 120.742 33.1978C119.964 35.2297 119.576 37.3643 119.576 39.6003C119.576 41.8831 119.964 44.0283 120.742 46.0362C121.519 48.0455 122.607 49.8258 124.006 51.377C125.404 52.9292 127.08 54.15 129.035 55.0399C130.988 55.9298 133.141 56.375 135.496 56.375C137.316 56.375 139.126 55.9183 140.924 55.0059C142.722 54.0936 144.11 52.8383 145.087 51.2402V55.5539H152.346V23.6471H145.087V27.9603ZM144.421 43.5027C143.977 44.7355 143.355 45.8081 142.556 46.7209C141.756 47.6342 140.791 48.3644 139.659 48.912C138.526 49.46 137.271 49.7335 135.895 49.7335C134.518 49.7335 133.275 49.46 132.165 48.912C131.054 48.364 130.1 47.6342 129.301 46.7209C128.502 45.8081 127.891 44.7355 127.469 43.5027C127.047 42.2705 126.837 40.9693 126.837 39.6003C126.837 38.2307 127.047 36.9296 127.469 35.6973C127.89 34.465 128.502 33.3929 129.301 32.4796C130.1 31.5672 131.055 30.8361 132.165 30.2886C133.275 29.7406 134.518 29.467 135.895 29.467C137.271 29.467 138.526 29.7406 139.659 30.2886C140.791 30.8366 141.756 31.5672 142.556 32.4796C143.355 33.3929 143.977 34.465 144.421 35.6973C144.864 36.9296 145.087 38.2307 145.087 39.6003C145.087 40.9693 144.864 42.2705 144.421 43.5027Z"/>
<path class="laravel" d="M204.099 27.9603C203.121 26.3627 201.734 25.1079 199.936 24.1946C198.138 23.2817 196.328 22.8251 194.508 22.8251C192.153 22.8251 190.001 23.2703 188.047 24.1602C186.093 25.0501 184.417 26.2723 183.018 27.8235C181.619 29.3757 180.531 31.1675 179.754 33.1978C178.977 35.2297 178.589 37.3643 178.589 39.6003C178.589 41.8831 178.977 44.0283 179.754 46.0362C180.531 48.0455 181.619 49.8258 183.018 51.377C184.417 52.9292 186.092 54.15 188.047 55.0399C190 55.9298 192.153 56.375 194.508 56.375C196.328 56.375 198.138 55.9183 199.936 55.0059C201.734 54.0936 203.122 52.8383 204.099 51.2402V55.5539H211.359V23.6471H204.099V27.9603ZM203.433 43.5027C202.988 44.7355 202.367 45.8081 201.568 46.7209C200.768 47.6342 199.803 48.3644 198.67 48.912C197.538 49.46 196.283 49.7335 194.907 49.7335C193.53 49.7335 192.286 49.46 191.177 48.912C190.066 48.364 189.112 47.6342 188.313 46.7209C187.513 45.8081 186.903 44.7355 186.481 43.5027C186.058 42.2705 185.849 40.9693 185.849 39.6003C185.849 38.2307 186.058 36.9296 186.481 35.6973C186.902 34.465 187.513 33.3929 188.313 32.4796C189.112 31.5672 190.067 30.8361 191.177 30.2886C192.286 29.7406 193.53 29.467 194.907 29.467C196.283 29.467 197.538 29.7406 198.67 30.2886C199.803 30.8366 200.768 31.5672 201.568 32.4796C202.367 33.3929 202.988 34.465 203.433 35.6973C203.876 36.9296 204.099 38.2307 204.099 39.6003C204.099 40.9693 203.876 42.2705 203.433 43.5027Z"/>
<path class="laravel" d="M291 7.625H283.741V55.5535H291V7.625Z"/>
<path class="laravel" d="M158.075 55.5535H165.335V30.9901H177.79V23.6471H158.075V55.5535Z"/>
<path class="laravel" d="M240.465 23.6471L231.34 48.0804L222.216 23.6471H214.862L226.778 55.5535H235.902L247.818 23.6471H240.465Z"/>
<path class="laravel" d="M263.652 22.8265C254.762 22.8265 247.725 30.3369 247.725 39.6007C247.725 49.8416 254.536 56.375 264.582 56.375C270.205 56.375 273.795 54.1648 278.181 49.3514L273.276 45.4504C273.273 45.4542 269.574 50.4469 264.051 50.4469C257.631 50.4469 254.928 45.1262 254.928 42.3733H279.013C280.278 31.8326 273.537 22.8265 263.652 22.8265ZM254.947 36.8278C255.003 36.2138 255.839 28.7541 263.594 28.7541C271.349 28.7541 272.291 36.2128 272.345 36.8278H254.947Z"/>
<path class="reverb" d="M475.534 56.2521C472.51 56.2521 469.969 55.5171 467.911 54.0471C465.853 52.5771 464.446 50.4981 463.69 47.8101L464.383 47.6841V55.6851H459.658V7.685H464.698V31.0521L464.005 30.8631C464.803 28.3851 466.252 26.4531 468.352 25.0671C470.494 23.6391 473.035 22.9251 475.975 22.9251C478.831 22.9251 481.309 23.6181 483.409 25.0041C485.551 26.3901 487.21 28.3221 488.386 30.8001C489.562 33.2781 490.15 36.1761 490.15 39.4941C490.15 42.8541 489.541 45.7941 488.323 48.3141C487.105 50.8341 485.404 52.7871 483.22 54.1731C481.036 55.5591 478.474 56.2521 475.534 56.2521ZM474.778 51.8421C477.97 51.8421 480.469 50.7501 482.275 48.5661C484.081 46.3401 484.984 43.3161 484.984 39.4941C484.984 35.7141 484.081 32.7531 482.275 30.6111C480.469 28.4271 477.97 27.3351 474.778 27.3351C471.586 27.3351 469.066 28.4481 467.218 30.6741C465.37 32.8581 464.446 35.8611 464.446 39.6831C464.446 43.4211 465.37 46.3821 467.218 48.5661C469.066 50.7501 471.586 51.8421 474.778 51.8421Z"/>
<path class="reverb" d="M417.64 56.315C414.574 56.315 411.865 55.601 409.513 54.173C407.161 52.703 405.313 50.708 403.969 48.188C402.625 45.668 401.953 42.77 401.953 39.494C401.953 36.218 402.604 33.341 403.906 30.863C405.25 28.343 407.119 26.39 409.513 25.004C411.907 23.618 414.658 22.925 417.766 22.925C420.748 22.925 423.331 23.576 425.515 24.878C427.741 26.18 429.442 28.007 430.618 30.359C431.836 32.711 432.445 35.483 432.445 38.675C432.445 39.095 432.424 39.494 432.382 39.872C432.382 40.25 432.34 40.67 432.256 41.132H405.733V36.911H429.169L427.531 39.242C427.531 35.378 426.67 32.417 424.948 30.359C423.268 28.259 420.874 27.209 417.766 27.209C414.574 27.209 411.991 28.322 410.017 30.548C408.085 32.732 407.119 35.693 407.119 39.431C407.119 43.253 408.085 46.319 410.017 48.629C411.991 50.897 414.616 52.031 417.892 52.031C419.95 52.031 421.756 51.59 423.31 50.708C424.864 49.784 425.998 48.482 426.712 46.802H431.5C430.45 49.742 428.686 52.073 426.208 53.795C423.772 55.475 420.916 56.315 417.64 56.315Z"/>
<path class="reverb" d="M383.683 55.685L370.39 23.555H375.808L386.896 52.283H384.88L395.905 23.555H401.071L387.778 55.685H383.683Z"/>
<path class="reverb" d="M354.641 56.315C351.575 56.315 348.866 55.601 346.514 54.173C344.162 52.703 342.314 50.708 340.97 48.188C339.626 45.668 338.954 42.77 338.954 39.494C338.954 36.218 339.605 33.341 340.907 30.863C342.251 28.343 344.12 26.39 346.514 25.004C348.908 23.618 351.659 22.925 354.767 22.925C357.749 22.925 360.332 23.576 362.516 24.878C364.742 26.18 366.443 28.007 367.619 30.359C368.837 32.711 369.446 35.483 369.446 38.675C369.446 39.095 369.425 39.494 369.383 39.872C369.383 40.25 369.341 40.67 369.257 41.132H342.734V36.911H366.17L364.532 39.242C364.532 35.378 363.671 32.417 361.949 30.359C360.269 28.259 357.875 27.209 354.767 27.209C351.575 27.209 348.992 28.322 347.018 30.548C345.086 32.732 344.12 35.693 344.12 39.431C344.12 43.253 345.086 46.319 347.018 48.629C348.992 50.897 351.617 52.031 354.893 52.031C356.951 52.031 358.757 51.59 360.311 50.708C361.865 49.784 362.999 48.482 363.713 46.802H368.501C367.451 49.742 365.687 52.073 363.209 53.795C360.773 55.475 357.917 56.315 354.641 56.315Z"/>
<path class="reverb" d="M303 55.685V7.685H319.758C322.908 7.685 325.617 8.189 327.885 9.197C330.153 10.205 331.896 11.633 333.114 13.481C334.374 15.329 335.004 18.185 335.004 21.033C335.004 24.141 333.996 27.682 331.98 29.656C330.006 31.63 326.982 33.058 322.908 33.94L323.538 32.239C326.898 32.155 329.523 32.995 331.413 34.759C333.303 36.523 334.248 39.001 334.248 42.193V55.685H329.082V43.201C329.082 40.471 328.284 38.392 326.688 36.964C325.134 35.536 322.929 34.822 320.073 34.822H306.78V30.538H319.569C322.803 30.538 325.323 29.824 327.129 28.396C329.838 26.685 329.838 23.889 329.838 21.285C329.838 17.8934 329.082 15.785 327.192 14.3C325.302 12.815 322.887 12.221 319.569 12.221H308.166V55.685H303Z"/>
<path class="reverb" d="M437.982 55.6949V23.5649H454.574V27.6949H443.022V55.6949H437.982Z"/>
<defs>
<clipPath id="clip0_259_510224">
<rect width="40.0792" height="40" fill="white" transform="translate(11.9609 12)"/>
</clipPath>
</defs>
</svg>
